<svg id="Layer_1" data-name="Layer 1" xmlns="http://www.w3.org/2000/svg" viewBox="0 0 637.12 134.4"><defs><style>.cls-1{fill:#fff;}</style></defs><path d="M637.12,15.56V118.84a15.55,15.55,0,0,1-15.55,15.56h-606A15.57,15.57,0,0,1,0,118.84V15.56A15.57,15.57,0,0,1,15.56,0h606A15.55,15.55,0,0,1,637.12,15.56Z"/><rect class="cls-1" x="93.21" y="46.32" width="15.66" height="15.68"/><rect class="cls-1" x="93.21" y="98.49" width="15.66" height="15.67"/><rect class="cls-1" x="93.21" y="72.4" width="15.66" height="15.68"/><rect class="cls-1" x="93.21" y="20.24" width="15.66" height="15.67"/><path class="cls-1" d="M158,98.48A29.53,29.53,0,0,1,143.45,95a25.27,25.27,0,0,1-9.93-9.82,29.09,29.09,0,0,1-3.6-14.63,31,31,0,0,1,3.54-15,25.8,25.8,0,0,1,9.83-10.2,28.81,28.81,0,0,1,14.78-3.66,27.88,27.88,0,0,1,14.08,3.5,25.1,25.1,0,0,1,9.55,9.55,26.81,26.81,0,0,1,3.44,13.47c0,.8,0,1.64-.06,2.51s-.09,1.79-.16,2.73H143.78a14.07,14.07,0,0,0,4.42,9.93,13.87,13.87,0,0,0,9.65,3.6A12.65,12.65,0,0,0,165,85.11a11.79,11.79,0,0,0,4.31-5H183.5a25.66,25.66,0,0,1-5.08,9.33,25,25,0,0,1-8.72,6.6A27.65,27.65,0,0,1,158,98.48Zm.11-45.4a14.83,14.83,0,0,0-9,2.9q-3.93,2.88-5,8.78H171A11.8,11.8,0,0,0,167,56.25,13.06,13.06,0,0,0,158.07,53.08Z"/><path class="cls-1" d="M205,88.2,185.14,34.07h14.62L213.51,75l13.75-40.92h14.62l-20,54.13Z"/><path class="cls-1" d="M270,106.69a29.54,29.54,0,0,1-14.52-3.49,25.27,25.27,0,0,1-9.93-9.82A29,29,0,0,1,242,78.76a30.81,30.81,0,0,1,3.55-15,25.67,25.67,0,0,1,9.82-10.21A28.91,28.91,0,0,1,270.15,50a27.84,27.84,0,0,1,14.07,3.49A25,25,0,0,1,293.77,63a26.85,26.85,0,0,1,3.44,13.48c0,.8,0,1.63-.06,2.51s-.09,1.78-.16,2.72H255.85a14.07,14.07,0,0,0,4.42,9.93,13.88,13.88,0,0,0,9.66,3.61,12.69,12.69,0,0,0,7.14-1.91,11.9,11.9,0,0,0,4.32-5h14.18a25.78,25.78,0,0,1-5.07,9.33,25.12,25.12,0,0,1-8.73,6.6A27.63,27.63,0,0,1,270,106.69Zm.11-45.39a14.85,14.85,0,0,0-9.06,2.89q-3.93,2.9-5,8.78H283a11.8,11.8,0,0,0-3.93-8.51A13,13,0,0,0,270.15,61.3Z"/><path class="cls-1" d="M304.63,81.88V27.75H317l1.09,9.17a19,19,0,0,1,7.26-7.64,21.38,21.38,0,0,1,11.18-2.84q10,0,15.61,6.33t5.56,18.56V81.88h-14V52.64q0-7-2.83-10.7T332,38.23a12.44,12.44,0,0,0-9.66,4.15q-3.76,4.14-3.77,11.56V81.88Z"/><path class="cls-1" d="M390.73,110.37q-8.52,0-13.65-4.14T372,91.5V67.92h-9.28V56.25H372l1.63-14.52h12.33V56.25h14.63V67.92H385.92V91.6c0,2.62.57,4.42,1.69,5.4s3.08,1.48,5.84,1.48h6.77v11.89Z"/><path class="cls-1" d="M430.55,98.48a31.65,31.65,0,0,1-12.65-2.35,21.74,21.74,0,0,1-8.73-6.49,18.65,18.65,0,0,1-3.93-9.6h14.08a9,9,0,0,0,3.54,5.4,11.89,11.89,0,0,0,7.48,2.24q4.57,0,6.71-1.86a5.51,5.51,0,0,0,2.13-4.25,4.69,4.69,0,0,0-3.06-4.75,53.37,53.37,0,0,0-8.51-2.46q-3.5-.75-7.09-1.85a33.14,33.14,0,0,1-6.61-2.78,14.41,14.41,0,0,1-4.85-4.37,11.27,11.27,0,0,1-1.86-6.6,15.33,15.33,0,0,1,5.73-12.11q5.73-4.92,16.1-4.92,9.6,0,15.33,4.48a18.13,18.13,0,0,1,6.82,12.33H438c-.81-4-3.82-6-9.06-6a10.28,10.28,0,0,0-6.06,1.53,4.54,4.54,0,0,0-2.13,3.82q0,2.4,3.17,3.81a46.13,46.13,0,0,0,8.4,2.62q5.67,1.32,10.42,2.9a17.44,17.44,0,0,1,7.59,4.69c1.89,2.07,2.83,5,2.83,8.89a15.14,15.14,0,0,1-2.62,9.06,18,18,0,0,1-7.85,6.33A29.49,29.49,0,0,1,430.55,98.48Z"/><path class="cls-1" d="M515,112.91a23.62,23.62,0,0,1-10.7-2.29,19.28,19.28,0,0,1-7.42-6.44l-1.53,7.42H482.93V33h14V65.22a24.82,24.82,0,0,1,6.93-6.32q4.31-2.73,11.19-2.73a25.46,25.46,0,0,1,13.64,3.71A26.52,26.52,0,0,1,538.15,70a30.12,30.12,0,0,1,3.49,14.62,29.84,29.84,0,0,1-3.49,14.57,26.35,26.35,0,0,1-9.49,10A25.78,25.78,0,0,1,515,112.91Zm-2.95-12.22a14.75,14.75,0,0,0,11-4.47,15.89,15.89,0,0,0,4.37-11.57A16.26,16.26,0,0,0,523.09,73a15.68,15.68,0,0,0-22.1,0,16.18,16.18,0,0,0-4.31,11.62A16.18,16.18,0,0,0,501,96.16,14.63,14.63,0,0,0,512.07,100.69Z"/><path class="cls-1" d="M568.38,87.29a25.62,25.62,0,0,1-11.46-2.23,15.49,15.49,0,0,1-6.66-6,15.87,15.87,0,0,1-2.18-8.18A14.9,14.9,0,0,1,554,58.7Q559.87,54,571.65,54H585.4V52.7q0-5.56-3.17-8.18a11.87,11.87,0,0,0-7.85-2.62,13.46,13.46,0,0,0-7.42,2A8.69,8.69,0,0,0,563,49.86H549.39a19,19,0,0,1,4-10.25,22.25,22.25,0,0,1,8.9-6.71,30.51,30.51,0,0,1,12.22-2.35q11.57,0,18.22,5.78t6.66,16.37V86h-11.9l-1.31-8.73a20,20,0,0,1-6.71,7.21Q575.15,87.29,568.38,87.29Zm3.16-10.91q6,0,9.33-3.93a19,19,0,0,0,4.2-9.71H573.18q-5.56,0-8,2a6.25,6.25,0,0,0-2.4,5,5.73,5.73,0,0,0,2.4,4.92A10.55,10.55,0,0,0,571.54,76.38Z"/><rect class="cls-1" x="459.28" y="81.67" width="15.66" height="15.66"/></svg>